<?xml version="1.0" standalone="no"?>
<!DOCTYPE svg PUBLIC "-//W3C//DTD SVG 20010904//EN"
 "http://www.w3.org/TR/2001/REC-SVG-20010904/DTD/svg10.dtd">
<svg version="1.0" xmlns="http://www.w3.org/2000/svg"
 width="200.000000pt" height="200.000000pt" viewBox="0 0 200.000000 200.000000"
 preserveAspectRatio="xMidYMid meet">

<g transform="translate(0.000000,200.000000) scale(0.100000,-0.100000)"
fill="#000000" stroke="none">
<path d="M112 1023 l3 -268 390 0 390 0 77 110 c42 61 83 120 89 133 15 27 11
34 -96 190 l-70 101 -393 1 -392 0 2 -267z m373 113 c40 -17 43 -26 15 -51
-27 -24 -25 -35 5 -35 24 0 25 -3 25 -54 0 -47 -4 -57 -26 -75 -31 -24 -83
-36 -121 -27 -14 4 -41 22 -60 41 -28 28 -33 40 -33 79 0 26 7 61 16 77 27 53
109 74 179 45z m294 -4 c72 -36 90 -136 34 -196 -67 -72 -176 -57 -215 31 -52
119 65 225 181 165z"/>
<path d="M381 1066 c-7 -8 -13 -26 -14 -41 -3 -34 42 -72 70 -59 15 7 14 8 -9
12 -24 3 -28 8 -28 38 0 33 2 34 38 34 35 1 36 2 18 15 -25 19 -60 19 -75 1z"/>
<path d="M680 1060 c-37 -37 -16 -92 35 -92 30 0 55 24 55 54 0 22 -34 58 -55
58 -8 0 -24 -9 -35 -20z"/>
</g>
</svg>
