<!-- Generated by IcoMoon.io -->
<svg version="1.1" xmlns="http://www.w3.org/2000/svg" width="43" height="32" viewBox="0 0 43 32">
<title>envelope</title>
<path d="M38.68 0.009h-34.679c-2.206 0-4.001 1.795-4.001 4.001v23.998c0 2.206 1.795 4.001 4.001 4.001h34.679c2.206 0 4.001-1.795 4.001-4.001v-23.998c0-2.206-1.795-4.001-4.001-4.001zM38.68 2.677c0.181 0 0.355 0.037 0.512 0.101l-17.852 15.467-17.852-15.467c0.15-0.064 0.325-0.101 0.509-0.101 0.001 0 0.002 0 0.003 0h34.679zM38.68 29.343h-34.679c-0.737 0-1.334-0.597-1.334-1.334v0-22.413l17.798 15.421c0.233 0.203 0.539 0.327 0.875 0.327s0.642-0.124 0.877-0.328l-0.002 0.001 17.798-15.419v22.411c0 0.737-0.597 1.334-1.334 1.334v0z"></path>
</svg>
